<?xml version="1.0" encoding="UTF-8" standalone="no"?>
<!-- Created with Inkscape (http://www.inkscape.org/) -->

<svg
   width="20.172718mm"
   height="4.1177759mm"
   viewBox="0 0 20.172718 4.1177759"
   version="1.1"
   id="svg17373"
   inkscape:version="1.2.2 (b0a8486, 2022-12-01)"
   sodipodi:docname="logo_standalone.svg"
   inkscape:export-filename="../../../Web things/alexlafetra.github.io/stepchild/images/logo_standalone.svg"
   inkscape:export-xdpi="1000"
   inkscape:export-ydpi="1000"
   xmlns:inkscape="http://www.inkscape.org/namespaces/inkscape"
   xmlns:sodipodi="http://sodipodi.sourceforge.net/DTD/sodipodi-0.dtd"
   xmlns="http://www.w3.org/2000/svg"
   xmlns:svg="http://www.w3.org/2000/svg">
  <sodipodi:namedview
     id="namedview17375"
     pagecolor="#ffffff"
     bordercolor="#000000"
     borderopacity="0.25"
     inkscape:showpageshadow="2"
     inkscape:pageopacity="0.0"
     inkscape:pagecheckerboard="0"
     inkscape:deskcolor="#d1d1d1"
     inkscape:document-units="mm"
     showgrid="false"
     inkscape:zoom="6.7116641"
     inkscape:cx="33.598225"
     inkscape:cy="5.3637964"
     inkscape:window-width="1672"
     inkscape:window-height="756"
     inkscape:window-x="0"
     inkscape:window-y="25"
     inkscape:window-maximized="0"
     inkscape:current-layer="layer1" />
  <defs
     id="defs17370">
    <inkscape:path-effect
       effect="fill_between_many"
       method="originald"
       linkedpaths="#path19709,0,1|#path19713,0,1|#path19717,0,1|#path19721,0,1|#path19725,0,1|#path19729,0,1|#path19789,0,1|#path19791,0,1|#path19793,0,1|#path19797,0,1|#path19803,0,1|#path19805,0,1|#path19807,0,1|#path19809,0,1"
       id="path-effect20507"
       is_visible="true"
       lpeversion="0"
       join="true"
       close="true"
       autoreverse="true" />
    <inkscape:path-effect
       effect="fill_between_many"
       method="originald"
       linkedpaths="#path19711,0,1|#path19715,0,1|#path19719,0,1|#path19723,0,1|#path19727,0,1|#path19731,0,1|#path19795,0,1|#path19799,0,1|#path19801,0,1|#path19839,0,1"
       id="path-effect20547"
       is_visible="true"
       lpeversion="0"
       join="true"
       close="true"
       autoreverse="true" />
    <inkscape:path-effect
       effect="fill_between_many"
       method="originald"
       linkedpaths="#path19733,0,1|#path19737,0,1|#path19741,0,1|#path19745,0,1|#path19749,0,1|#path19753,0,1|#path19757,0,1|#path19761,0,1"
       id="path-effect20467"
       is_visible="true"
       lpeversion="0"
       join="true"
       close="true"
       autoreverse="true" />
    <inkscape:path-effect
       effect="fill_between_many"
       method="originald"
       linkedpaths="#path19735,0,1|#path19739,0,1|#path19743,0,1|#path19747,0,1|#path19751,0,1|#path19755,0,1|#path19759,0,1|#path19763,0,1|#path19767,0,1|#path19771,0,1|#path19773,0,1|#path19777,0,1|#path19781,0,1|#path19785,0,1|#path19813,0,1|#path19817,0,1|#path19821,0,1|#path19825,0,1|#path19829,0,1|#path19833,0,1|#path19837,0,1|#path19843,0,1"
       id="path-effect20387"
       is_visible="true"
       lpeversion="0"
       join="true"
       close="true"
       autoreverse="true" />
    <inkscape:path-effect
       effect="fill_between_many"
       method="originald"
       linkedpaths="#path19765,0,1|#path19769,0,1|#path19775,0,1|#path19779,0,1|#path19783,0,1|#path19787,0,1|#path19811,0,1|#path19815,0,1|#path19819,0,1|#path19823,0,1|#path19827,0,1|#path19831,0,1|#path19835,0,1|#path19841,0,1|#path19845,0,1"
       id="path-effect20427"
       is_visible="true"
       lpeversion="0"
       join="true"
       close="true"
       autoreverse="true" />
  </defs>
  <g
     inkscape:label="Layer 1"
     inkscape:groupmode="layer"
     id="layer1"
     transform="translate(-56.6128,-117.4962)">
    <g
       id="g19986"
       transform="matrix(0.03863109,0,0,0.03863109,162.29485,149.78893)"
       inkscape:label="SC.1D Top"
       inkscape:export-filename="../../../Web things/alexlafetra.github.io/stepchild/logo.svg"
       inkscape:export-xdpi="1000"
       inkscape:export-ydpi="1000">
      <path
         d="m 391.94034,1202.7347 a 11.338583,11.338583 0 0 0 10.95223,14.2732 l 56.87243,0 a 34.015748,34.015748 0 0 0 32.85655,-25.214 L 532.678,1042.3 a 11.338583,11.338583 0 0 0 -10.9526,-14.2685 l -73.8594,-0 a 34.015748,34.015748 0 0 0 -17.00748,4.5587 L 402.641,1048.88 a 34.015748,34.015748 0 0 0 -15.84901,20.6548 L 383.693,1081.1 a 11.338583,11.338583 0 0 0 10.95248,14.2727 l 11.28552,-0 a 11.338583,11.338583 0 0 1 10.95238,14.2759 L 391.94,1202.73 Z"
         id="path20509"
         inkscape:original-d="M 0,0"
         inkscape:path-effect="#path-effect20507"
         class="UnoptimicedTransforms"
         transform="matrix(0.56107106,0,0,0.56107106,-2616.952,-1412.4433)" />
      <path
         d="m 391.94034,1202.7347 a 11.338583,11.338583 0 0 0 10.95223,14.2732"
         style="fill:none;stroke:#000000"
         id="path19709"
         class="UnoptimicedTransforms"
         transform="matrix(0.56107106,0,0,0.56107106,-2616.952,-1412.4433)" />
      <path
         d="m 699.62745,1148.5483 a 34.015748,34.015748 0 0 0 3.88646,-58.7887 L 619.829,1033.77 a 34.015748,34.015748 0 0 0 -18.91419,-5.7385 l -23.08981,-0 a 11.338583,11.338583 0 0 0 -10.95179,8.4054 L 522.313,1202.73 a 11.338583,11.338583 0 0 0 10.95271,14.2779 l 19.42129,0 a 34.015748,34.015748 0 0 0 15.02711,-3.5016 L 699.627,1148.55 Z"
         id="path20549"
         inkscape:original-d="M 0,0"
         inkscape:path-effect="#path-effect20547"
         class="UnoptimicedTransforms"
         transform="matrix(0.56107106,0,0,0.56107106,-2616.952,-1412.4433)" />
      <path
         d="m 699.62745,1148.5483 a 34.015748,34.015748 0 0 0 3.88646,-58.7887"
         style="fill:none;stroke:#000000"
         id="path19711"
         class="UnoptimicedTransforms"
         transform="matrix(0.56107106,0,0,0.56107106,-2616.952,-1412.4433)" />
      <path
         style="fill:none;stroke:#000000"
         d="m 416.883,1109.65 -24.943,93.08"
         id="path19713"
         class="UnoptimicedTransforms"
         transform="matrix(0.56107106,0,0,0.56107106,-2616.952,-1412.4433)" />
      <path
         style="fill:none;stroke:#000000"
         d="m 567.714,1213.51 131.913,-64.96"
         id="path19715"
         class="UnoptimicedTransforms"
         transform="matrix(0.56107106,0,0,0.56107106,-2616.952,-1412.4433)" />
      <path
         d="m 416.88338,1109.6459 a 11.338583,11.338583 0 0 0 -10.95223,-14.2732"
         style="fill:none;stroke:#000000"
         id="path19717"
         class="UnoptimicedTransforms"
         transform="matrix(0.56107106,0,0,0.56107106,-2616.952,-1412.4433)" />
      <path
         d="m 552.68651,1217.0079 a 34.015748,34.015748 0 0 0 15.0276,-3.4995"
         style="fill:none;stroke:#000000"
         id="path19719"
         class="UnoptimicedTransforms"
         transform="matrix(0.56107106,0,0,0.56107106,-2616.952,-1412.4433)" />
      <path
         style="fill:none;stroke:#000000"
         d="m 394.645,1095.37 h 11.286"
         id="path19721"
         class="UnoptimicedTransforms"
         transform="matrix(0.56107106,0,0,0.56107106,-2616.952,-1412.4433)" />
      <path
         style="fill:none;stroke:#000000"
         d="m 533.266,1217.01 h 19.421"
         id="path19723"
         class="UnoptimicedTransforms"
         transform="matrix(0.56107106,0,0,0.56107106,-2616.952,-1412.4433)" />
      <path
         d="m 383.69325,1081.0995 a 11.338583,11.338583 0 0 0 10.95223,14.2732"
         style="fill:none;stroke:#000000"
         id="path19725"
         class="UnoptimicedTransforms"
         transform="matrix(0.56107106,0,0,0.56107106,-2616.952,-1412.4433)" />
      <path
         d="m 522.31348,1202.7347 a 11.338583,11.338583 0 0 0 10.95223,14.2732"
         style="fill:none;stroke:#000000"
         id="path19727"
         class="UnoptimicedTransforms"
         transform="matrix(0.56107106,0,0,0.56107106,-2616.952,-1412.4433)" />
      <path
         style="fill:none;stroke:#000000"
         d="m 386.792,1069.53 -3.099,11.57"
         id="path19729"
         class="UnoptimicedTransforms"
         transform="matrix(0.56107106,0,0,0.56107106,-2616.952,-1412.4433)" />
      <path
         style="fill:none;stroke:#000000"
         d="m 566.873,1036.44 -44.56,166.29"
         id="path19731"
         class="UnoptimicedTransforms"
         transform="matrix(0.56107106,0,0,0.56107106,-2616.952,-1412.4433)" />
      <path
         d="m 304.09833,1141.4173 a 34.015748,34.015748 0 0 0 -32.85669,25.2118 L 261.567,1202.73 a 11.338583,11.338583 0 0 0 10.95243,14.2779 l 56.87257,0 a 34.015748,34.015748 0 0 0 32.85642,-25.214 l 9.67458,-36.106 a 11.338583,11.338583 0 0 0 -10.95237,-14.2727 l -56.87263,0 z"
         id="path20469"
         inkscape:original-d="M 0,0"
         inkscape:path-effect="#path-effect20467"
         class="UnoptimicedTransforms"
         transform="matrix(0.56107106,0,0,0.56107106,-2616.952,-1412.4433)" />
      <path
         d="m 304.09833,1141.4173 a 34.015748,34.015748 0 0 0 -32.85669,25.2118"
         style="fill:none;stroke:#000000"
         id="path19733"
         class="UnoptimicedTransforms"
         transform="matrix(0.56107106,0,0,0.56107106,-2616.952,-1412.4433)" />
      <path
         d="m -1.673157,1084.7244 a 34.015748,34.015748 0 0 0 32.856689,-25.2118 L 35.7944,1042.3 a 11.338583,11.338583 0 0 0 -10.952264,-14.2685 l -162.636136,-0 a 34.015748,34.015748 0 0 0 -32.8567,25.2133 L -182.803,1098.6 a 34.015748,34.015748 0 0 0 32.85633,42.8173 l 21.71067,0 -0.56,2.09 a 22.677165,22.677165 0 0 1 -21.90479,16.805 l -22.53821,-0.01 a 34.015748,34.015748 0 0 0 -32.85695,25.2168 l -4.61105,17.2032 a 11.338583,11.338583 0 0 0 10.95244,14.2779 l 162.63616,0 a 34.015748,34.015748 0 0 0 32.856685,-25.214 L 7.89094,1146.44 a 34.015748,34.015748 0 0 0 -32.856688,-42.818 l -21.710252,-0 0.5599,-2.09 a 22.677165,22.677165 0 0 1 21.904473,-16.8056 l 22.538467,-0 z"
         id="path20389"
         inkscape:original-d="M 0,0"
         inkscape:path-effect="#path-effect20387"
         class="UnoptimicedTransforms"
         transform="matrix(0.56107106,0,0,0.56107106,-2616.952,-1412.4433)" />
      <path
         d="m -1.673157,1084.7244 a 34.015748,34.015748 0 0 0 32.856689,-25.2118"
         style="fill:none;stroke:#000000"
         id="path19735"
         class="UnoptimicedTransforms"
         transform="matrix(0.56107106,0,0,0.56107106,-2616.952,-1412.4433)" />
      <path
         style="fill:none;stroke:#000000"
         d="M 360.971,1141.42 H 304.098"
         id="path19737"
         class="UnoptimicedTransforms"
         transform="matrix(0.56107106,0,0,0.56107106,-2616.952,-1412.4433)" />
      <path
         style="fill:none;stroke:#000000"
         d="M -24.2116,1084.72 H -1.67316"
         id="path19739"
         class="UnoptimicedTransforms"
         transform="matrix(0.56107106,0,0,0.56107106,-2616.952,-1412.4433)" />
      <path
         d="m 371.92286,1155.6905 a 11.338583,11.338583 0 0 0 -10.95223,-14.2732"
         style="fill:none;stroke:#000000"
         id="path19741"
         class="UnoptimicedTransforms"
         transform="matrix(0.56107106,0,0,0.56107106,-2616.952,-1412.4433)" />
      <path
         d="m -24.211627,1084.7244 a 22.677165,22.677165 0 0 0 -21.90446,16.8079"
         style="fill:none;stroke:#000000"
         id="path19743"
         class="UnoptimicedTransforms"
         transform="matrix(0.56107106,0,0,0.56107106,-2616.952,-1412.4433)" />
      <path
         style="fill:none;stroke:#000000"
         d="m 362.248,1191.8 9.675,-36.11"
         id="path19745"
         class="UnoptimicedTransforms"
         transform="matrix(0.56107106,0,0,0.56107106,-2616.952,-1412.4433)" />
      <path
         style="fill:none;stroke:#000000"
         d="m -46.676,1103.62 0.5599,-2.09"
         id="path19747"
         class="UnoptimicedTransforms"
         transform="matrix(0.56107106,0,0,0.56107106,-2616.952,-1412.4433)" />
      <path
         d="m 329.39173,1217.0079 a 34.015748,34.015748 0 0 0 32.85669,-25.2119"
         style="fill:none;stroke:#000000"
         id="path19749"
         class="UnoptimicedTransforms"
         transform="matrix(0.56107106,0,0,0.56107106,-2616.952,-1412.4433)" />
      <path
         style="fill:none;stroke:#000000"
         d="M -24.9657,1103.62 H -46.676"
         id="path19751"
         class="UnoptimicedTransforms"
         transform="matrix(0.56107106,0,0,0.56107106,-2616.952,-1412.4433)" />
      <path
         style="fill:none;stroke:#000000"
         d="m 272.519,1217.01 h 56.873"
         id="path19753"
         class="UnoptimicedTransforms"
         transform="matrix(0.56107106,0,0,0.56107106,-2616.952,-1412.4433)" />
      <path
         d="M 7.890941,1146.4417 A 34.015748,34.015748 0 0 0 -24.965748,1103.622"
         style="fill:none;stroke:#000000"
         id="path19755"
         class="UnoptimicedTransforms"
         transform="matrix(0.56107106,0,0,0.56107106,-2616.952,-1412.4433)" />
      <path
         d="m 261.5672,1202.7347 a 11.338583,11.338583 0 0 0 10.95223,14.2732"
         style="fill:none;stroke:#000000"
         id="path19757"
         class="UnoptimicedTransforms"
         transform="matrix(0.56107106,0,0,0.56107106,-2616.952,-1412.4433)" />
      <path
         style="fill:none;stroke:#000000"
         d="M -4.26171,1191.8 7.89094,1146.44"
         id="path19759"
         class="UnoptimicedTransforms"
         transform="matrix(0.56107106,0,0,0.56107106,-2616.952,-1412.4433)" />
      <path
         style="fill:none;stroke:#000000"
         d="m 271.242,1166.63 -9.675,36.1"
         id="path19761"
         class="UnoptimicedTransforms"
         transform="matrix(0.56107106,0,0,0.56107106,-2616.952,-1412.4433)" />
      <path
         d="m -37.118405,1217.0079 a 34.015748,34.015748 0 0 0 32.85669,-25.2119"
         style="fill:none;stroke:#000000"
         id="path19763"
         class="UnoptimicedTransforms"
         transform="matrix(0.56107106,0,0,0.56107106,-2616.952,-1412.4433)" />
      <path
         d="m 98.342978,1028.0315 a 34.015748,34.015748 0 0 0 -32.85669,25.2118 L 25.4302,1202.73 a 11.338583,11.338583 0 0 0 10.952237,14.2779 l 162.636563,0 a 34.015748,34.015748 0 0 0 32.85628,-25.214 L 241.55,1155.69 a 11.338583,11.338583 0 0 0 -10.95251,-14.2727 l -68.12549,0 a 11.338583,11.338583 0 0 1 -10.68995,-15.1208 34.015748,34.015748 0 0 1 32.07035,-22.6772 l 45.5476,-0 a 34.015748,34.015748 0 0 0 32.85692,-25.2098 L 271.931,1042.3 a 11.338583,11.338583 0 0 0 -10.95187,-14.2685 l -162.63613,-0 z"
         id="path20429"
         inkscape:original-d="M 0,0"
         inkscape:path-effect="#path-effect20427"
         class="UnoptimicedTransforms"
         transform="matrix(0.56107106,0,0,0.56107106,-2616.952,-1412.4433)" />
      <path
         d="m 98.342978,1028.0315 a 34.015748,34.015748 0 0 0 -32.85669,25.2118"
         style="fill:none;stroke:#000000"
         id="path19765"
         class="UnoptimicedTransforms"
         transform="matrix(0.56107106,0,0,0.56107106,-2616.952,-1412.4433)" />
      <path
         style="fill:none;stroke:#000000"
         d="M -199.755,1217.01 H -37.1184"
         id="path19767"
         class="UnoptimicedTransforms"
         transform="matrix(0.56107106,0,0,0.56107106,-2616.952,-1412.4433)" />
      <path
         style="fill:none;stroke:#000000"
         d="M 260.979,1028.03 H 98.343"
         id="path19769"
         class="UnoptimicedTransforms"
         transform="matrix(0.56107106,0,0,0.56107106,-2616.952,-1412.4433)" />
      <path
         d="m -210.70679,1202.7347 a 11.338583,11.338583 0 0 0 10.95223,14.2732"
         style="fill:none;stroke:#000000"
         id="path19771"
         class="UnoptimicedTransforms"
         transform="matrix(0.56107106,0,0,0.56107106,-2616.952,-1412.4433)" />
      <path
         d="m -137.79401,1028.0315 a 34.015748,34.015748 0 0 0 -32.85669,25.2118"
         style="fill:none;stroke:#000000"
         id="path19773"
         class="UnoptimicedTransforms"
         transform="matrix(0.56107106,0,0,0.56107106,-2616.952,-1412.4433)" />
      <path
         d="m 199.01859,1217.0079 a 34.015748,34.015748 0 0 0 32.85669,-25.2119"
         style="fill:none;stroke:#000000"
         id="path19775"
         class="UnoptimicedTransforms"
         transform="matrix(0.56107106,0,0,0.56107106,-2616.952,-1412.4433)" />
      <path
         style="fill:none;stroke:#000000"
         d="M 24.8421,1028.03 H -137.794"
         id="path19777"
         class="UnoptimicedTransforms"
         transform="matrix(0.56107106,0,0,0.56107106,-2616.952,-1412.4433)" />
      <path
         style="fill:none;stroke:#000000"
         d="M 36.3824,1217.01 H 199.019"
         id="path19779"
         class="UnoptimicedTransforms"
         transform="matrix(0.56107106,0,0,0.56107106,-2616.952,-1412.4433)" />
      <path
         d="m 35.794366,1042.3047 a 11.338583,11.338583 0 0 0 -10.95223,-14.2732"
         style="fill:none;stroke:#000000"
         id="path19781"
         class="UnoptimicedTransforms"
         transform="matrix(0.56107106,0,0,0.56107106,-2616.952,-1412.4433)" />
      <path
         d="m 25.430207,1202.7347 a 11.338583,11.338583 0 0 0 10.95223,14.2732"
         style="fill:none;stroke:#000000"
         id="path19783"
         class="UnoptimicedTransforms"
         transform="matrix(0.56107106,0,0,0.56107106,-2616.952,-1412.4433)" />
      <path
         style="fill:none;stroke:#000000"
         d="m 31.1835,1059.51 4.6109,-17.21"
         id="path19785"
         class="UnoptimicedTransforms"
         transform="matrix(0.56107106,0,0,0.56107106,-2616.952,-1412.4433)" />
      <path
         style="fill:none;stroke:#000000"
         d="M 65.4863,1053.24 25.4302,1202.73"
         id="path19787"
         class="UnoptimicedTransforms"
         transform="matrix(0.56107106,0,0,0.56107106,-2616.952,-1412.4433)" />
      <path
         d="m 402.6408,1048.8803 a 34.015748,34.015748 0 0 0 -15.84881,20.6545"
         style="fill:none;stroke:#000000"
         id="path19789"
         class="UnoptimicedTransforms"
         transform="matrix(0.56107106,0,0,0.56107106,-2616.952,-1412.4433)" />
      <path
         style="fill:none;stroke:#000000"
         d="m 430.859,1032.59 -28.218,16.29"
         id="path19791"
         class="UnoptimicedTransforms"
         transform="matrix(0.56107106,0,0,0.56107106,-2616.952,-1412.4433)" />
      <path
         d="m 459.76486,1217.0079 a 34.015748,34.015748 0 0 0 32.85669,-25.2119"
         style="fill:none;stroke:#000000"
         id="path19793"
         class="UnoptimicedTransforms"
         transform="matrix(0.56107106,0,0,0.56107106,-2616.952,-1412.4433)" />
      <path
         style="fill:none;stroke:#000000"
         d="m 600.915,1028.03 h -23.09"
         id="path19795"
         class="UnoptimicedTransforms"
         transform="matrix(0.56107106,0,0,0.56107106,-2616.952,-1412.4433)" />
      <path
         style="fill:none;stroke:#000000"
         d="m 402.893,1217.01 h 56.872"
         id="path19797"
         class="UnoptimicedTransforms"
         transform="matrix(0.56107106,0,0,0.56107106,-2616.952,-1412.4433)" />
      <path
         d="m 619.82888,1033.7748 a 34.015748,34.015748 0 0 0 -18.91407,-5.7433"
         style="fill:none;stroke:#000000"
         id="path19799"
         class="UnoptimicedTransforms"
         transform="matrix(0.56107106,0,0,0.56107106,-2616.952,-1412.4433)" />
      <path
         d="m 577.82544,1028.0315 a 11.338583,11.338583 0 0 0 -10.95223,8.4039"
         style="fill:none;stroke:#000000"
         id="path19801"
         class="UnoptimicedTransforms"
         transform="matrix(0.56107106,0,0,0.56107106,-2616.952,-1412.4433)" />
      <path
         style="fill:none;stroke:#000000"
         d="m 492.622,1191.8 40.056,-149.5"
         id="path19803"
         class="UnoptimicedTransforms"
         transform="matrix(0.56107106,0,0,0.56107106,-2616.952,-1412.4433)" />
      <path
         d="M 532.67763,1042.3047 A 11.338583,11.338583 0 0 0 521.7254,1028.0315"
         style="fill:none;stroke:#000000"
         id="path19805"
         class="UnoptimicedTransforms"
         transform="matrix(0.56107106,0,0,0.56107106,-2616.952,-1412.4433)" />
      <path
         style="fill:none;stroke:#000000"
         d="M 521.725,1028.03 H 447.866"
         id="path19807"
         class="UnoptimicedTransforms"
         transform="matrix(0.56107106,0,0,0.56107106,-2616.952,-1412.4433)" />
      <path
         d="m 447.8664,1028.0315 a 34.015748,34.015748 0 0 0 -17.00788,4.5572"
         style="fill:none;stroke:#000000"
         id="path19809"
         class="UnoptimicedTransforms"
         transform="matrix(0.56107106,0,0,0.56107106,-2616.952,-1412.4433)" />
      <path
         style="fill:none;stroke:#000000"
         d="m 231.875,1191.8 9.675,-36.11"
         id="path19811"
         class="UnoptimicedTransforms"
         transform="matrix(0.56107106,0,0,0.56107106,-2616.952,-1412.4433)" />
      <path
         style="fill:none;stroke:#000000"
         d="m -170.651,1053.24 -12.152,45.36"
         id="path19813"
         class="UnoptimicedTransforms"
         transform="matrix(0.56107106,0,0,0.56107106,-2616.952,-1412.4433)" />
      <path
         d="m 241.54972,1155.6905 a 11.338583,11.338583 0 0 0 -10.95223,-14.2732"
         style="fill:none;stroke:#000000"
         id="path19815"
         class="UnoptimicedTransforms"
         transform="matrix(0.56107106,0,0,0.56107106,-2616.952,-1412.4433)" />
      <path
         d="m -182.80336,1098.5977 a 34.015748,34.015748 0 0 0 32.85669,42.8196"
         style="fill:none;stroke:#000000"
         id="path19817"
         class="UnoptimicedTransforms"
         transform="matrix(0.56107106,0,0,0.56107106,-2616.952,-1412.4433)" />
      <path
         style="fill:none;stroke:#000000"
         d="M 230.597,1141.42 H 162.472"
         id="path19819"
         class="UnoptimicedTransforms"
         transform="matrix(0.56107106,0,0,0.56107106,-2616.952,-1412.4433)" />
      <path
         style="fill:none;stroke:#000000"
         d="m -149.947,1141.42 h 21.711"
         id="path19821"
         class="UnoptimicedTransforms"
         transform="matrix(0.56107106,0,0,0.56107106,-2616.952,-1412.4433)" />
      <path
         d="m 151.78205,1126.2992 a 11.338583,11.338583 0 0 0 10.69012,15.1181"
         style="fill:none;stroke:#000000"
         id="path19823"
         class="UnoptimicedTransforms"
         transform="matrix(0.56107106,0,0,0.56107106,-2616.952,-1412.4433)" />
      <path
         style="fill:none;stroke:#000000"
         d="m -128.236,1141.42 -0.56,2.09"
         id="path19825"
         class="UnoptimicedTransforms"
         transform="matrix(0.56107106,0,0,0.56107106,-2616.952,-1412.4433)" />
      <path
         d="m 183.8524,1103.622 a 34.015748,34.015748 0 0 0 -32.07035,22.6772"
         style="fill:none;stroke:#000000"
         id="path19827"
         class="UnoptimicedTransforms"
         transform="matrix(0.56107106,0,0,0.56107106,-2616.952,-1412.4433)" />
      <path
         d="m -150.70079,1160.315 a 22.677165,22.677165 0 0 0 21.90446,-16.8079"
         style="fill:none;stroke:#000000"
         id="path19829"
         class="UnoptimicedTransforms"
         transform="matrix(0.56107106,0,0,0.56107106,-2616.952,-1412.4433)" />
      <path
         style="fill:none;stroke:#000000"
         d="M 183.852,1103.62 H 229.4"
         id="path19831"
         class="UnoptimicedTransforms"
         transform="matrix(0.56107106,0,0,0.56107106,-2616.952,-1412.4433)" />
      <path
         style="fill:none;stroke:#000000"
         d="m -150.701,1160.31 h -22.538"
         id="path19833"
         class="UnoptimicedTransforms"
         transform="matrix(0.56107106,0,0,0.56107106,-2616.952,-1412.4433)" />
      <path
         d="m 229.40023,1103.622 a 34.015748,34.015748 0 0 0 32.85669,-25.2118"
         style="fill:none;stroke:#000000"
         id="path19835"
         class="UnoptimicedTransforms"
         transform="matrix(0.56107106,0,0,0.56107106,-2616.952,-1412.4433)" />
      <path
         d="m -173.23926,1160.315 a 34.015748,34.015748 0 0 0 -32.85669,25.2118"
         style="fill:none;stroke:#000000"
         id="path19837"
         class="UnoptimicedTransforms"
         transform="matrix(0.56107106,0,0,0.56107106,-2616.952,-1412.4433)" />
      <path
         style="fill:none;stroke:#000000"
         d="m 703.514,1089.76 -83.685,-55.99"
         id="path19839"
         class="UnoptimicedTransforms"
         transform="matrix(0.56107106,0,0,0.56107106,-2616.952,-1412.4433)" />
      <path
         style="fill:none;stroke:#000000"
         d="m 262.257,1078.41 9.674,-36.11"
         id="path19841"
         class="UnoptimicedTransforms"
         transform="matrix(0.56107106,0,0,0.56107106,-2616.952,-1412.4433)" />
      <path
         style="fill:none;stroke:#000000"
         d="m -206.096,1185.53 -4.611,17.2"
         id="path19843"
         class="UnoptimicedTransforms"
         transform="matrix(0.56107106,0,0,0.56107106,-2616.952,-1412.4433)" />
      <path
         d="m 271.93136,1042.3047 a 11.338583,11.338583 0 0 0 -10.95223,-14.2732"
         style="fill:none;stroke:#000000"
         id="path19845"
         class="UnoptimicedTransforms"
         transform="matrix(0.56107106,0,0,0.56107106,-2616.952,-1412.4433)" />
    </g>
  </g>
</svg>
