<?xml version="1.0" encoding="UTF-8" standalone="no"?>
<svg
   width="26.968233mm"
   height="5.7834997mm"
   viewBox="0 0 318.52118 68.308781"
   version="1.2"
   id="svg6699"
   sodipodi:docname="Stepchild_logo2.5.24.svg"
   inkscape:version="1.2.2 (b0a8486, 2022-12-01)"
   xml:space="preserve"
   inkscape:export-filename="Faces_for_printing_outline.svg"
   inkscape:export-xdpi="1000"
   inkscape:export-ydpi="1000"
   xmlns:inkscape="http://www.inkscape.org/namespaces/inkscape"
   xmlns:sodipodi="http://sodipodi.sourceforge.net/DTD/sodipodi-0.dtd"
   xmlns="http://www.w3.org/2000/svg"
   xmlns:svg="http://www.w3.org/2000/svg"><sodipodi:namedview
     id="namedview6701"
     pagecolor="#ffffff"
     bordercolor="#000000"
     borderopacity="0.25"
     inkscape:showpageshadow="2"
     inkscape:pageopacity="1"
     inkscape:pagecheckerboard="0"
     inkscape:deskcolor="#d1d1d1"
     inkscape:document-units="mm"
     showgrid="false"
     inkscape:zoom="6.9155586"
     inkscape:cx="48.658397"
     inkscape:cy="28.197288"
     inkscape:window-width="1581"
     inkscape:window-height="974"
     inkscape:window-x="185"
     inkscape:window-y="25"
     inkscape:window-maximized="0"
     inkscape:current-layer="layer2" /><defs
     id="defs3431" /><g
     inkscape:groupmode="layer"
     id="layer2"
     inkscape:label="Graphics"
     style="display:inline"
     transform="translate(-688.25206,-199.19072)"><g
       id="g25297"
       inkscape:label="Logo"
       transform="matrix(1.2111433,0,0,1.2111433,-220.4988,-584.79595)"><path
         style="display:inline;fill:#0c0c0c;stroke:#000000;stroke-width:1.15999;stroke-linecap:round;stroke-linejoin:round;stroke-dashoffset:0.831494;paint-order:fill markers stroke"
         d="m 894.27307,647.89124 h 91.2172 c 15.09463,0 27.24673,12.15202 27.24673,27.24669 0,15.09467 -12.1521,27.2467 -27.24673,27.2467 h -91.2172 c -15.09467,0 -27.2467,-12.15203 -27.2467,-27.2467 0,-15.09467 12.15203,-27.24669 27.2467,-27.24669 z"
         id="rect3642" /><g
         aria-label="child"
         transform="scale(1.1387282,0.87817269)"
         id="text2926"
         style="font-size:72.5715px;line-height:3.58217px;font-family:'.SF Compact Rounded';-inkscape-font-specification:'.SF Compact Rounded, Normal';stroke:#000000;stroke-width:1.15999;stroke-linecap:round;stroke-linejoin:round;stroke-dashoffset:0.831494;paint-order:fill markers stroke"><path
           d="m 781.83196,788.14993 q -5.05978,0 -8.44119,-3.06055 -3.55418,-3.20864 -3.55418,-8.46587 0,-5.01041 3.33205,-10.34169 3.70227,-5.92364 8.34246,-5.92364 2.41882,0 5.40532,1.13536 3.77632,1.45623 3.77632,3.55419 0,0.93791 -0.61705,1.67836 -0.61704,0.71578 -1.53027,0.71578 -0.71577,0 -1.25877,-0.4196 -0.51832,-0.44427 -1.01196,-0.86386 -1.45623,-1.16005 -4.76359,-1.16005 -2.51755,0 -4.98573,4.4921 -2.24605,4.12186 -2.24605,7.13305 0,3.258 2.22136,5.13382 2.07328,1.75241 5.33128,1.75241 1.48091,0 3.15928,-0.78982 l 2.86309,-1.53027 q 0.74045,-0.39491 1.06132,-0.39491 0.91323,0 1.57963,0.74045 0.66641,0.71578 0.66641,1.65369 0,1.80177 -3.801,3.48014 -3.33205,1.48091 -5.52873,1.48091 z"
           style="font-size:50.5484px;font-family:'Comic Sans MS';-inkscape-font-specification:'Comic Sans MS, Normal';fill:#ffffff;stroke:none"
           id="path969" /><path
           d="m 817.29976,788.12524 q -1.75241,0 -2.29541,-1.87582 -0.56768,-2.02391 -1.03664,-5.75086 -0.44427,-3.57887 -0.44427,-5.87428 0,-0.64173 0.0494,-1.94987 0.074,-1.30813 0.074,-1.94986 0,-4.64019 -2.3201,-4.64019 -3.13459,0 -5.60277,2.83842 -1.25878,1.45622 -3.45546,5.55341 0,9.40378 -0.78982,11.13151 -0.69109,1.53027 -2.14732,1.53027 -1.01195,0 -1.77709,-0.69109 -0.76514,-0.69109 -0.76514,-1.67837 0,-0.34554 0.22214,-1.086 0.19745,-0.61704 0.2715,-3.60354 l 0.0741,-3.65292 0.074,-18.14115 q 0.17277,-3.06054 0.17277,-4.12186 0,-1.25878 -0.24681,-2.36946 -0.22214,-1.13536 -0.22214,-2.34477 0,-1.03664 0.71577,-1.70305 0.71578,-0.69109 1.75241,-0.69109 2.02391,0 2.36946,2.172 0.39491,2.39414 0.39491,4.31932 0,2.59159 -0.17277,5.40532 -0.1481,2.69032 -0.12341,5.40533 l 0.0247,2.172 q 2.02391,-2.715 4.31932,-4.04782 2.32009,-1.3575 4.91168,-1.3575 4.09719,0 5.62746,2.66563 1.086,1.87582 1.2341,6.31855 l 0.19745,4.71423 0.49364,5.13383 q 0.34554,2.88777 0.83918,5.08446 0.0987,0.41959 0.0987,0.71577 0,1.01195 -0.74046,1.67836 -0.74045,0.69109 -1.77709,0.69109 z"
           style="font-size:50.5484px;font-family:'Comic Sans MS';-inkscape-font-specification:'Comic Sans MS, Normal';fill:#ffffff;stroke:none"
           id="path966" /><path
           d="m 830.5539,755.34777 q -1.18472,0 -2.04859,-0.83919 -0.86386,-0.83918 -0.86386,-2.02391 0,-1.18473 0.86386,-2.02391 0.86387,-0.83918 2.04859,-0.83918 1.18473,0 2.02391,0.83918 0.86387,0.83918 0.86387,2.02391 0,1.18473 -0.86387,2.02391 -0.83918,0.83919 -2.02391,0.83919 z m 1.11069,20.04165 q 0,1.48091 0.074,4.44273 0.0987,2.93714 0.0987,4.41805 0,1.086 -0.66641,1.77709 -0.66641,0.69109 -1.75241,0.69109 -1.06132,0 -1.75241,-0.69109 -0.66641,-0.69109 -0.66641,-1.77709 0,-1.48091 -0.0987,-4.41805 -0.074,-2.96182 -0.074,-4.44273 0,-2.3201 0.24681,-5.77555 0.24682,-3.48014 0.24682,-5.80023 0,-1.11069 0.66641,-1.80178 0.69109,-0.69109 1.75241,-0.69109 1.06132,0 1.72773,0.69109 0.69109,0.69109 0.69109,1.80178 0,2.32009 -0.24682,5.80023 -0.24681,3.45545 -0.24681,5.77555 z"
           style="font-size:50.5484px;font-family:'Comic Sans MS';-inkscape-font-specification:'Comic Sans MS, Normal';fill:#ffffff;stroke:none"
           id="path963" /><path
           d="m 846.27623,767.19505 -0.37022,12.26687 q 0,1.94987 -0.19746,5.72619 -0.24682,2.46818 -2.41882,2.46818 -2.41882,0 -2.41882,-2.51755 0,-2.9865 0.2715,-8.9595 0.2715,-5.99769 0.2715,-8.98419 0,-3.89973 0.12341,-8.91015 0.12341,-5.03509 0.12341,-8.93482 0,-2.46818 2.41882,-2.46818 2.4435,0 2.4435,2.46818 0,3.89973 -0.12341,8.93482 -0.12341,5.01042 -0.12341,8.91015 z"
           style="font-size:50.5484px;font-family:'Comic Sans MS';-inkscape-font-specification:'Comic Sans MS, Normal';fill:#ffffff;stroke:none"
           id="path960" /><path
           d="m 876.58553,764.80091 q -0.29618,3.62823 -0.29618,7.25646 0,8.21905 0.76513,12.41496 0.0494,0.34555 0.0494,0.56769 0,0.98727 -0.69109,1.629 -0.69109,0.64172 -1.60432,0.64172 -1.53028,0 -2.24605,-2.22136 -1.77709,1.30814 -3.70228,1.97455 -1.9005,0.66641 -3.97377,0.66641 -5.10914,0 -8.46587,-3.4061 -3.45546,-3.48014 -3.45546,-8.93482 0,-6.59005 3.48014,-10.56383 3.50482,-3.97377 9.08292,-3.97377 2.86309,0 4.41805,0.88854 l 2.32009,1.70305 q 0.34554,-10.39105 0.8145,-13.9946 0.32086,-2.19669 2.24605,-2.19669 2.24604,0 2.24604,2.39414 0,3.43078 -0.98727,15.15465 z m -10.95874,0.64173 q -4.14654,0 -6.21982,2.46818 -2.07327,2.4435 -2.07327,7.37987 0,3.18396 2.24604,5.47937 2.27073,2.29541 5.3066,2.29541 2.07327,0 3.50482,-0.76514 0.83918,-0.44427 2.73968,-2.04859 0.37023,-0.32087 0.71578,-0.76514 l -0.0741,-4.26996 0.0247,-2.86309 0.0494,-2.91246 q -0.93791,-1.99922 -2.49287,-2.9865 -1.55495,-1.01195 -3.72696,-1.01195 z"
           style="font-size:50.5484px;font-family:'Comic Sans MS';-inkscape-font-specification:'Comic Sans MS, Normal';fill:#ffffff;stroke:none"
           id="path957" /></g><g
         aria-label="step"
         transform="scale(1.1434816,0.87452216)"
         id="text6558"
         style="font-size:58.3403px;line-height:5.39678px;font-family:'.SF Compact Rounded';-inkscape-font-specification:'.SF Compact Rounded, Normal';letter-spacing:4.62597px;display:inline;fill:none;fill-rule:evenodd;stroke:#000000;stroke-width:4.70178;stroke-linecap:round;stroke-linejoin:round;paint-order:stroke fill markers"><path
           d="m 658.23158,783.50271 6.00537,-1.15893 q 0.79018,2.37054 2.00179,3.31876 1.21161,0.92188 3.2134,0.92188 1.92277,0 3.10804,-0.92188 1.18528,-0.92188 1.18528,-2.15983 0,-0.84286 -0.50045,-1.42232 -0.52679,-0.55313 -2.52858,-1.34331 -5.5576,-2.23885 -6.90091,-3.52947 -2.13349,-2.08081 -2.13349,-5.42591 0,-3.9509 2.79197,-6.50582 2.79197,-2.55492 7.63842,-2.55492 8.21787,0 9.53484,7.296 l -5.71564,1.21161 q -1.00089,-3.31876 -4.79376,-3.31876 -1.79108,0 -2.71295,0.73751 -0.92188,0.7375 -0.92188,1.87009 0,0.94822 0.71116,1.6067 0.52679,0.50045 3.63483,1.6067 4.45135,1.58036 5.97904,3.08171 2.23884,2.18616 2.23884,5.32055 0,4.24063 -2.87099,7.0326 -2.87099,2.79198 -7.61207,2.79198 -9.32413,0 -11.35226,-8.45494 z"
           style="font-style:italic;font-weight:bold;font-stretch:condensed;font-size:53.943px;font-family:'Arial Narrow';-inkscape-font-specification:'Arial Narrow, Bold Italic Condensed';fill:#000000;stroke:#ffffff"
           id="path553" /><path
           d="m 689.80271,768.96339 0.94821,-5.61029 h 3.02903 l 0.76384,-4.47769 7.08529,-5.21519 -1.65938,9.69288 h 3.79287 l -0.94822,5.61029 h -3.79287 l -2.02813,11.72101 q -0.52679,3.16072 -0.52679,3.66117 0,0.92188 0.47411,1.36965 0.47411,0.44777 1.63304,0.44777 0.36875,0 2.02813,-0.18438 l -0.97455,5.61028 q -1.6067,0.36876 -3.23974,0.36876 -3.16073,0 -4.74109,-1.47501 -1.55402,-1.475 -1.55402,-4.31965 0,-1.31697 0.79018,-5.9527 l 1.92277,-11.2469 z"
           style="font-style:italic;font-weight:bold;font-stretch:condensed;font-size:53.943px;font-family:'Arial Narrow';-inkscape-font-specification:'Arial Narrow, Bold Italic Condensed';fill:#000000;stroke:#ffffff"
           id="path555" /><path
           d="m 729.93413,779.68351 h -15.56656 v 0.71116 q 0,2.81831 1.31697,4.50403 1.31697,1.68572 3.16072,1.68572 3.05537,0 4.8201,-3.89823 l 5.55761,1.13259 q -1.63304,4.0826 -4.346,6.11073 -2.71295,2.02814 -6.08439,2.02814 -4.47769,0 -7.45404,-3.4768 -2.95,-3.50313 -2.95,-9.48217 0,-6.45314 3.37143,-11.35226 3.37144,-4.92546 9.42949,-4.92546 4.0826,0 6.61118,3.10804 2.55492,3.08171 2.55492,8.92905 0,2.76563 -0.42143,4.92546 z m -5.24153,-4.60939 0.0263,-0.7375 q 0,-3.18707 -1.18527,-4.71475 -1.15894,-1.52768 -3.02903,-1.52768 -1.89643,0 -3.45046,1.76474 -1.52768,1.76473 -2.05447,5.21519 z"
           style="font-style:italic;font-weight:bold;font-stretch:condensed;font-size:53.943px;font-family:'Arial Narrow';-inkscape-font-specification:'Arial Narrow, Bold Italic Condensed';fill:#000000;stroke:#ffffff"
           id="path557" /><path
           d="m 741.43467,763.3531 h 5.87368 l -0.50045,2.87099 q 1.97545,-1.97545 3.60849,-2.73929 1.63304,-0.76384 3.42412,-0.76384 3.58215,0 5.79466,3.00269 2.2125,3.00268 2.2125,9.0344 0,7.69109 -3.89822,12.90628 -3.2134,4.29332 -7.5594,4.29332 -4.53037,0 -6.87457,-4.4777 l -2.50224,14.51299 h -6.18975 z m 3.74019,16.04067 q 0,3.29242 1.31697,5.0835 1.31697,1.79107 3.05536,1.79107 1.39599,0 2.7393,-1.13259 1.3433,-1.15893 2.42322,-4.24063 1.10625,-3.08171 1.10625,-6.34779 0,-3.13438 -1.26429,-4.79376 -1.23795,-1.65938 -3.0817,-1.65938 -1.44867,0 -2.81832,1.13259 -1.3433,1.13259 -2.42322,4.0826 -1.05357,2.95001 -1.05357,6.08439 z"
           style="font-style:italic;font-weight:bold;font-stretch:condensed;font-size:53.943px;font-family:'Arial Narrow';-inkscape-font-specification:'Arial Narrow, Bold Italic Condensed';fill:#000000;stroke:#ffffff"
           id="path559" /></g></g></g></svg>
