<?xml version="1.0" encoding="utf-8"?>
<!-- Generator: Adobe Illustrator 28.0.0, SVG Export Plug-In . SVG Version: 6.00 Build 0)  -->
<svg version="1.1" id="Layer_1" xmlns="http://www.w3.org/2000/svg" xmlns:xlink="http://www.w3.org/1999/xlink" x="0px" y="0px"
	 viewBox="0 0 1069.9 224.1" style="enable-background:new 0 0 1069.9 224.1;" xml:space="preserve">
<style type="text/css">
	.st0{fill:#222222;}
</style>
<path class="st0" d="M631,80.3v65.2c0,1.1-0.4,2-1.2,2.8c-0.8,0.7-1.7,1.1-2.7,1.1h-46.5c-1,0-1.9-0.4-2.7-1
	c-0.8-0.8-1.2-1.8-1.2-2.8V80.3c0-1,0.4-1.8,1.2-2.7c0.8-0.8,1.7-1.2,2.7-1.2h46.5c1,0,1.8,0.4,2.7,1.2
	C630.6,78.5,631,79.3,631,80.3z M752,80.3v27.8c0,1-0.4,1.8-1.2,2.7c-0.8,0.8-1.7,1.2-2.7,1.2h-46.5c-1,0-1.8-0.4-2.7-1.2
	c-0.8-0.8-1.2-1.7-1.2-2.7V80.3c0-1,0.4-1.8,1.2-2.7c0.8-0.8,1.7-1.2,2.7-1.2h46.5c1,0,1.8,0.4,2.7,1.2
	C751.6,78.5,752,79.3,752,80.3z M752,80.3v27.8c0,1-0.4,1.8-1.2,2.7c-0.8,0.8-1.7,1.2-2.7,1.2h-46.5c-1,0-1.8-0.4-2.7-1.2
	c-0.8-0.8-1.2-1.7-1.2-2.7V80.3c0-1,0.4-1.8,1.2-2.7c0.8-0.8,1.7-1.2,2.7-1.2h46.5c1,0,1.8,0.4,2.7,1.2
	C751.6,78.5,752,79.3,752,80.3z M1069.9,112.1c0,62.1-50,112.1-112.1,112.1H582.6c-38.7,0-72.6-19.4-92.8-49
	c11.8-15,17.7-32.8,17.7-53.2c0-19.8-5.4-35.4-16-46.4c-3.4-3.6-7.3-6.6-11.4-9C497.4,27.3,536.7,0,582.6,0h375.3
	C1020,0,1069.9,50,1069.9,112.1z M651.7,80.3c0-1.5-0.6-2.9-1.8-4.1c-1.2-1.2-2.6-1.8-4.1-1.8h-9.1c-1,0-1.8-0.4-2.7-1.1
	c-0.7-0.8-1.1-1.7-1.1-2.7v-9.1c0-1.5-0.6-2.9-1.8-4.1s-2.6-1.8-4.1-1.8h-65.2c-1.6,0-3,0.6-4.3,1.8c-1.1,1.2-1.6,2.6-1.6,4v102.6
	c0,1.6,0.5,3,1.6,4.2l0.1,0.1c1.2,1.1,2.6,1.6,4.2,1.6h65.2c1.5,0,2.8-0.5,4.1-1.6c1.2-1.2,1.8-2.6,1.8-4.2v-8.9
	c0-1.1,0.3-2,1.1-2.7c0.8-0.8,1.7-1.2,2.7-1.2h9.1c1.5,0,2.8-0.5,4.1-1.6c1.2-1.2,1.8-2.6,1.8-4.2V80.3z M772.7,80.3
	c0-1.5-0.6-2.9-1.8-4.1s-2.6-1.8-4.1-1.8h-9.1c-1,0-1.9-0.4-2.7-1.1c-0.7-0.8-1.1-1.7-1.1-2.7v-9.1c0-1.5-0.6-2.9-1.8-4.1
	s-2.6-1.8-4.1-1.8h-46.5c-1.5,0-2.9,0.6-4.1,1.8s-1.8,2.6-1.8,4.1v9.1c0,1-0.4,1.8-1.2,2.7c-0.7,0.7-1.6,1-2.7,1h-8.9
	c-1.6,0-3,0.6-4.3,1.8c-1.1,1.2-1.6,2.5-1.6,4v83.9c0,1.6,0.5,3,1.6,4.2l0.1,0.1c1.2,1.1,2.6,1.6,4.2,1.6h8.9c1.6,0,3-0.5,4.1-1.6
	c1.2-1.2,1.8-2.6,1.8-4.2v-27.6c0-1.1,0.4-1.9,1.2-2.7c0.8-0.8,1.7-1.2,2.7-1.2h46.5c1,0,1.8,0.4,2.7,1.3c0.8,0.7,1.2,1.6,1.2,2.6
	v27.6c0,1.6,0.5,3,1.6,4.2l0.1,0.1c1.2,1.1,2.5,1.6,4,1.6h9.1c1.5,0,2.8-0.5,4.1-1.6c1.2-1.2,1.8-2.6,1.8-4.2V80.3z M875,61.6
	c0-1.5-0.6-2.9-1.8-4.1c-1.2-1.2-2.6-1.8-4.1-1.8h-46.5c-1.5,0-2.9,0.6-4.1,1.8s-1.8,2.6-1.8,4.1v9.1c0,1-0.4,1.8-1.2,2.7
	c-0.7,0.7-1.6,1-2.7,1H804c-1.6,0-3,0.6-4.3,1.8c-1.1,1.2-1.6,2.5-1.6,4v9.1c0,1.5,0.5,2.8,1.6,4.1c1.2,1.2,2.6,1.8,4.2,1.8h8.9
	c1,0,1.9,0.4,2.6,1.2l0.1,0.1c0.8,0.7,1.2,1.5,1.2,2.5v9.1c0,1.5,0.6,2.9,1.8,4.1c1.2,1.2,2.6,1.8,4.1,1.8h8.9
	c1.1,0,1.9,0.4,2.6,1.2l0.1,0.1c0.8,0.7,1.2,1.6,1.2,2.6v8.9c0,1.5,0.6,2.9,1.8,4.1c1.2,1.2,2.6,1.8,4.1,1.8h9.1
	c1,0,1.8,0.4,2.5,1.2l0.1,0.1c0.8,0.7,1.2,1.6,1.2,2.6v8.9c0,1.1-0.4,2-1.2,2.8c-0.7,0.7-1.5,1-2.5,1H804c-1.6,0-3,0.6-4.2,1.8
	c-1.1,1.1-1.6,2.5-1.6,4.1v8.9c0,1.6,0.5,3,1.6,4.2l0.1,0.1c1.2,1.1,2.6,1.6,4.2,1.6h46.5c1.5,0,2.8-0.5,3.9-1.6
	c1.2-1.2,1.8-2.6,1.8-4.2v-8.9c0-1.1,0.4-1.9,1.2-2.7c0.8-0.8,1.7-1.2,2.7-1.2h9.1c1.5,0,2.8-0.5,4.1-1.6c1.2-1.2,1.8-2.6,1.8-4.2
	v-8.9c0-1.6-0.6-3-1.8-4.1c-1.2-1.2-2.6-1.8-4.1-1.8h-9.1c-1,0-1.8-0.4-2.7-1.2c-0.8-0.8-1.2-1.7-1.2-2.7v-8.9c0-1.6-0.6-3-1.8-4.1
	c-1.1-1.2-2.4-1.8-3.9-1.8h-9.1c-1,0-1.8-0.4-2.7-1.2c-0.8-0.8-1.2-1.7-1.2-2.7V99c0-1.5-0.6-2.8-1.8-3.9c-1.1-1.2-2.5-1.8-4.1-1.8
	h-8.9c-1,0-1.8-0.4-2.7-1.2c-0.8-0.8-1.2-1.7-1.2-2.7v-9.1c0-1,0.4-1.8,1.2-2.7c0.8-0.8,1.7-1.2,2.7-1.2h46.5c1.5,0,2.8-0.5,4.1-1.6
	c1.2-1.2,1.8-2.6,1.8-4.1V61.6z M996,61.6c0-1.5-0.6-2.9-1.8-4.1s-2.6-1.8-4.1-1.8H981c-1.5,0-2.9,0.6-4.1,1.8
	c-1.1,1.2-1.6,2.6-1.6,4v27.8c0,1-0.4,1.8-1.2,2.7c-0.8,0.8-1.7,1.2-2.7,1.2h-46.5c-1,0-1.8-0.4-2.7-1.2c-0.8-0.8-1.2-1.7-1.2-2.7
	V61.6c0-1.5-0.6-2.9-1.8-4c-1.1-1.2-2.5-1.8-4.1-1.8h-8.9c-1.6,0-3.1,0.6-4.3,1.8c-1.1,1.2-1.6,2.6-1.6,4v102.6c0,1.6,0.5,3,1.6,4.2
	l0.1,0.1c1.2,1.1,2.6,1.6,4.2,1.6h8.9c1.6,0,3-0.5,4.1-1.6c1.2-1.2,1.8-2.6,1.8-4.2v-46.3c0-1.1,0.4-1.9,1.2-2.7
	c0.8-0.8,1.7-1.2,2.7-1.2h46.5c1,0,1.8,0.4,2.7,1.3c0.8,0.7,1.2,1.6,1.2,2.6v46.3c0,1.6,0.5,3,1.6,4.2l0.1,0.1
	c1.2,1.1,2.5,1.6,4,1.6h9.1c1.5,0,2.8-0.5,4.1-1.6c1.2-1.2,1.8-2.6,1.8-4.2V61.6z M750.8,77.6c0.8,0.8,1.2,1.7,1.2,2.7v27.8
	c0,1-0.4,1.8-1.2,2.7c-0.8,0.8-1.7,1.2-2.7,1.2h-46.5c-1,0-1.8-0.4-2.7-1.2c-0.8-0.8-1.2-1.7-1.2-2.7V80.3c0-1,0.4-1.8,1.2-2.7
	c0.8-0.8,1.7-1.2,2.7-1.2h46.5C749.1,76.4,750,76.8,750.8,77.6z M752,80.3v27.8c0,1-0.4,1.8-1.2,2.7c-0.8,0.8-1.7,1.2-2.7,1.2h-46.5
	c-1,0-1.8-0.4-2.7-1.2c-0.8-0.8-1.2-1.7-1.2-2.7V80.3c0-1,0.4-1.8,1.2-2.7c0.8-0.8,1.7-1.2,2.7-1.2h46.5c1,0,1.8,0.4,2.7,1.2
	C751.6,78.5,752,79.3,752,80.3z M752,80.3v27.8c0,1-0.4,1.8-1.2,2.7c-0.8,0.8-1.7,1.2-2.7,1.2h-46.5c-1,0-1.8-0.4-2.7-1.2
	c-0.8-0.8-1.2-1.7-1.2-2.7V80.3c0-1,0.4-1.8,1.2-2.7c0.8-0.8,1.7-1.2,2.7-1.2h46.5c1,0,1.8,0.4,2.7,1.2
	C751.6,78.5,752,79.3,752,80.3z M92.2,129.4c-4.8-3.6-14.2-7.3-28.1-11.1c-9.8-2.6-15.5-4.6-17.1-5.8c-2.2-1.6-3.3-3.5-3.3-5.8
	c0-2.7,1.5-5,4.3-6.7c2.9-1.8,7.1-2.7,12.8-2.7c11.9,0,19.4,4,22.5,11.9l26.9-4.4C106,87.4,91.1,78.7,65.3,78.7
	c-15.2,0-27.2,3.1-35.9,9.2c-8.8,6.1-13.1,13.9-13.1,23.4c0,8,3.3,14.5,10,19.5c4.2,3.1,15,7.3,32.5,12.7c6.3,1.9,10.2,3.5,11.9,4.8
	c1.6,1.4,2.4,3.1,2.4,5.1c0,3-1.9,5.6-5.6,7.8c-3.7,2.2-8.6,3.3-14.6,3.3c-6.3,0-11.3-1.1-15.1-3.3c-3.8-2.3-6.9-6.3-9.4-11.9
	L0,153.4c6.4,20.3,24.2,30.4,53.4,30.4c14.9,0,26.8-3.3,35.8-10c9-6.7,13.5-15.1,13.5-25.3C102.7,141,99.2,134.6,92.2,129.4z
	 M191.9,101.1h17.8l4.5-20.2h-17.8l7.8-34.9l-33.3,18.8l-3.6,16.1H153l-4.5,20.2h14.1l-9,40.5c-2.5,11.1-3.7,18.3-3.7,21.4
	c0,6.8,2.4,12,7.3,15.5c5,3.5,12.4,5.3,22.3,5.3c5.1,0,10.2-0.4,15.2-1.3l4.6-20.2c-5.2,0.5-8.4,0.7-9.5,0.7c-3.6,0-6.2-0.5-7.7-1.6
	c-1.5-1.1-2.2-2.7-2.2-4.9c0-1.2,0.8-5.6,2.5-13.2L191.9,101.1z M264.1,139.7v2.6c0,6.8,2.1,12.2,6.2,16.2c4.1,4,9.1,6.1,14.9,6.1
	c9.6,0,17.1-4.7,22.7-14l26.1,4.1c-5.1,9.8-11.9,17.1-20.5,22c-8.5,4.9-18,7.3-28.6,7.3c-14,0-25.7-4.2-35.1-12.5
	c-9.2-8.4-13.9-19.8-13.9-34.1c0-15.5,5.3-29.1,15.9-40.8c10.6-11.8,25.4-17.7,44.4-17.7c12.8,0,23.2,3.7,31.1,11.2
	c8,7.4,12,18.1,12,32.1c0,6.6-0.7,12.5-2,17.7H264.1z M267.1,123.1h45.6l0.1-2.7c0-7.6-1.9-13.3-5.6-17c-3.6-3.7-8.4-5.5-14.2-5.5
	c-6,0-11.4,2.1-16.2,6.3C271.9,108.6,268.7,114.8,267.1,123.1z M487.5,122c0,12.5-2.8,23.6-8.4,33.4c-2.7,4.7-6,9-9.9,13
	c-10.1,10.3-21.9,15.4-35.6,15.4c-14.2,0-25-5.4-32.3-16.1l-11.8,52.2h-29.1l31.1-139h27.6l-2.3,10.3c6.2-4.7,11.8-8,17-9.8
	c5.1-1.8,10.5-2.8,16.1-2.8c9.4,0,17.3,2.5,23.6,7.5c1.3,1,2.5,2.1,3.6,3.3C484,96.7,487.5,107.5,487.5,122z M459.1,121.2
	c0-7.5-2-13.3-6-17.2c-3.9-4-8.7-6-14.5-6c-4.5,0-9,1.4-13.3,4.1c-4.2,2.7-8,7.6-11.4,14.7c-3.3,7.1-5,14.4-5,21.9
	c0,7.9,2.1,14,6.2,18.3c4.1,4.3,8.9,6.5,14.4,6.5c4.4,0,8.7-1.4,12.9-4.1c4.2-2.8,8-7.9,11.4-15.2
	C457.4,136.7,459.1,129,459.1,121.2z"/>
</svg>
